# xmcd
#
# Track frame offsets:
# 150
# 19080
# 44499
# 65404
# 88400
# 109391
# 126566
# 145963
#
# Disc length: 2497 seconds
#
# Revision: 1
# Processed by: cddbd v1.5.1PL0 Copyright (c) Steve Scherf et al.
# Submitted via: CedeCatalogueitor 2.6.0.6 http://personales.ya.com/cdcatalogueitor
#
DISCID=7c09bf08
DTITLE=Albert Collins - Frostbite
DYEAR=1980
DGENRE=Texas-Blues
TTITLE0=If Love Me Like You Say
TTITLE1=Blue Monday Hangover
TTITLE2=I Got A Problem
TTITLE3=The HighwayIs Like A Woman
TTITLE4=Brick
TTITLE5=Don't Go Reaching Across My Plate
TTITLE6=Give Me My Blues
TTITLE7=Snowed In
EXTD=
EXTT0=
EXTT1=
EXTT2=
EXTT3=
EXTT4=
EXTT5=
EXTT6=
EXTT7=
PLAYORDER=
